<?xml version="1.0" standalone="no"?>
<!DOCTYPE svg PUBLIC "-//W3C//DTD SVG 20010904//EN"
 "http://www.w3.org/TR/2001/REC-SVG-20010904/DTD/svg10.dtd">
<svg version="1.0" xmlns="http://www.w3.org/2000/svg"
 width="512.000000pt" height="512.000000pt" viewBox="0 0 512.000000 512.000000"
 preserveAspectRatio="xMidYMid meet">

<g transform="translate(0.000000,512.000000) scale(0.100000,-0.100000)"
fill="#000000" stroke="none">
<path d="M1130 4843 c-422 -70 -756 -387 -841 -797 -18 -87 -19 -159 -19
-1486 0 -1322 1 -1400 19 -1485 83 -402 401 -713 809 -791 61 -12 312 -14
1465 -14 1324 0 1396 1 1483 19 378 78 671 359 777 746 l22 80 0 1445 0 1445
-22 80 c-106 387 -399 668 -777 746 -87 18 -156 19 -1491 18 -770 -1 -1411 -4
-1425 -6z m2870 -329 c196 -46 372 -187 460 -369 74 -152 70 -54 70 -1585 0
-1531 4 -1433 -70 -1585 -66 -137 -178 -249 -315 -315 -152 -74 -54 -70 -1585
-70 -1530 0 -1433 -4 -1585 70 -135 65 -249 179 -315 315 -74 152 -70 54 -70
1585 0 1531 -4 1433 70 1585 87 179 264 323 455 369 93 22 2790 23 2885 0z"/>
<path d="M2480 3868 c-18 -13 -43 -36 -54 -51 -21 -28 -21 -38 -24 -562 l-3
-534 -534 -3 c-524 -3 -534 -3 -562 -24 -98 -73 -98 -195 0 -268 28 -21 38
-21 562 -24 l534 -3 3 -534 c3 -524 3 -534 24 -562 73 -98 195 -98 268 0 21
28 21 38 24 562 l3 534 534 3 c524 3 534 3 562 24 48 35 73 82 73 134 0 52
-25 99 -73 134 -28 21 -38 21 -562 24 l-534 3 -3 534 c-3 524 -3 534 -24 562
-35 48 -82 73 -134 73 -32 0 -57 -7 -80 -22z"/>
</g>
</svg>
